<?xml version="1.0" standalone="no"?>
<!DOCTYPE svg PUBLIC "-//W3C//DTD SVG 20010904//EN"
 "http://www.w3.org/TR/2001/REC-SVG-20010904/DTD/svg10.dtd">
<svg version="1.0" xmlns="http://www.w3.org/2000/svg"
 width="620.000000pt" height="410.000000pt" viewBox="0 0 620.000000 410.000000"
 preserveAspectRatio="xMidYMid meet">
<metadata>
Created by potrace 1.15, written by Peter Selinger 2001-2017
</metadata>
<g transform="translate(0.000000,410.000000) scale(0.100000,-0.100000)"
fill="#000000" stroke="none">
<path d="M2960 3999 c-779 -57 -1450 -576 -1704 -1316 -164 -479 -129 -1029
95 -1483 418 -850 1361 -1276 2271 -1026 542 149 993 528 1239 1041 127 265
189 540 189 840 0 1027 -785 1868 -1815 1945 -77 5 -147 9 -155 9 -8 -1 -62
-5 -120 -10z m506 -203 c631 -134 1135 -590 1332 -1207 61 -190 77 -300 76
-539 0 -194 -3 -228 -27 -341 -87 -411 -291 -756 -600 -1016 -887 -744 -2238
-458 -2742 582 -337 694 -194 1516 356 2051 184 178 351 288 578 378 241 97
411 127 696 122 178 -4 228 -8 331 -30z"/>
<path d="M1818 3003 c-2 -5 -2 -137 0 -295 l4 -288 474 0 474 0 2 -797 3 -798
327 -3 328 -2 2 797 3 798 478 3 477 2 0 295 0 295 -1284 0 c-707 0 -1286 -3
-1288 -7z"/>
</g>
</svg>
