<?xml version="1.0" standalone="no"?>
<!DOCTYPE svg PUBLIC "-//W3C//DTD SVG 20010904//EN"
 "http://www.w3.org/TR/2001/REC-SVG-20010904/DTD/svg10.dtd">
<svg version="1.0" xmlns="http://www.w3.org/2000/svg"
 width="30.000000pt" height="30.000000pt" viewBox="0 0 30.000000 30.000000"
 preserveAspectRatio="xMidYMid meet">
<metadata>
Created by potrace 1.15, written by Peter Selinger 2001-2017
</metadata>
<g transform="translate(0.000000,30.000000) scale(0.100000,-0.100000)"
fill="#000000" stroke="none">
<path d="M119 238 c-2 -242 -3 -238 67 -238 42 0 44 1 44 30 0 25 -4 30 -25
30 -24 0 -25 3 -25 55 0 52 1 55 26 55 23 0 25 3 22 33 -2 26 -7 32 -25 31
-19 0 -23 5 -23 33 0 30 -3 33 -30 33 l-30 0 -1 -62z"/>
</g>
</svg>
